<?xml version="1.0" encoding="utf-8"?>
<!-- Generator: Adobe Illustrator 27.5.0, SVG Export Plug-In . SVG Version: 6.00 Build 0)  -->
<svg version="1.1" id="Layer_1" xmlns="http://www.w3.org/2000/svg" xmlns:xlink="http://www.w3.org/1999/xlink" x="0px" y="0px"
	 viewBox="0 0 4000 4000" style="enable-background:new 0 0 4000 4000;" xml:space="preserve">
<path d="M1832.779,1975.122c0,0,185.639-187.905,224.842-236.501c39.203-48.596,141.824-160.367,194.864-220.303
	s111.845-118.251,196.016-111.771c84.172,6.479,139.518,82.614,157.966,131.21c18.448,48.596,44.968,147.408,17.295,230.022
	s-92.243,144.169-104.926,150.648l-5.765,37.257c0,0,197.17-32.397,234.067-40.497c36.897-8.099,51.887-19.438,95.702-25.918
	s238.679-55.076,288.26-71.274c49.581-16.199,160.272-45.356,232.914-69.654s272.117-85.853,304.402-95.573
	c32.285-9.719,55.346-21.058,69.182-24.298c13.836-3.24,32.285-4.86,34.591-1.62c2.306,3.24-17.295,17.819-17.295,17.819
	s27.673,27.538,24.214,34.017c-3.459,6.479-276.729,90.713-319.391,105.292c-42.662,14.579-100.314,34.017-100.314,34.017
	l4.612,34.017l-25.367,9.719l-2.306,29.158l-100.314,42.117c0,0,8.071,43.737-14.99,92.333c0,0-14.99-14.579-20.755-74.514
	l-235.219,98.812c0,0,13.836,100.432-41.51,174.947c-55.346,74.514-110.692,59.935-126.834,56.695
	c-16.143-3.24-62.264-14.579-78.407-56.695c-16.142-42.117-11.53-105.292-11.53-105.292l-57.652,21.059
	c0,0,3.459,84.233-17.296,123.11c0,0-11.53-11.339-18.448-58.315l-87.631,42.117c0,0,5.765,45.356,0,56.696
	c-5.765,11.339-14.99,11.339-14.99,11.339l1.153,79.374l-4.612,8.099v9.719h4.109l-5.262,42.117l12.684,30.778l4.612-12.959
	c0,0-2.306-29.158,20.755-30.778s26.52,46.976,28.826,68.035s5.765,69.655-18.448,71.274c0,0,5.765,37.257-13.837,43.737
	c-19.602,6.479-21.907-16.199-26.52-25.918c-4.612-9.719-5.765-22.678-16.143-22.678c-10.377,0-13.836,17.819-14.99,22.678
	c-1.153,4.86-5.765,1.62-5.765,1.62v-8.099l-3.459,1.62c0,0,3.459,46.976-19.602,43.737s-25.367-24.298-27.673-46.976
	s-11.53-90.713,14.99-84.233c0,0-4.612-38.877,13.836-45.356c18.449-6.479,26.52,11.339,26.52,11.339s-1.153-29.158-3.459-34.017
	s-6.918-11.339-6.918-11.339l-11.53-1.62c0,0,0-17.819,3.459-24.298c3.459-6.479,5.765-17.819,5.765-17.819l-4.612-43.737
	c0,0-3.459-6.479-10.377,1.62l-1.153-17.819c0,0-18.449,12.959-26.52-29.158l-141.824,68.035l-6.918-59.935l-5.765,24.298
	l-9.224-19.438c0,0-55.346,59.935-168.344,87.473c0,0-123.375,165.227-274.423,110.151l-4.612,8.099l8.071,9.719l-5.765,51.836
	l9.224,34.017l6.918-1.62c0,0-4.612-35.637,17.296-38.877s24.214,14.579,29.979,45.356s6.918,102.052-14.989,90.713
	c0,0,1.153,42.117-16.143,45.356s-24.214-25.918-26.52-34.017s-3.459,9.719-5.765,6.479c-2.306-3.24-1.153-22.678-5.765-22.678
	s-14.99,4.86-14.99,11.339s-2.306,12.959-4.612,14.579c-2.306,1.62-4.612-9.719-4.612-9.719s-4.612-1.62-3.459,9.719
	c1.153,11.339,6.918,38.877-16.142,38.877c-23.061,0-23.061-16.199-27.673-40.497c-4.612-24.298-13.836-102.052,12.684-93.953
	c0,0-6.918-35.637,11.53-42.117s28.826,12.959,28.826,12.959s-2.306-25.918-3.459-32.397s-10.377-17.819-10.377-17.819l-6.918-6.479
	l-4.612-61.555c0,0-41.509-6.479-74.948-43.737c0,0-43.815,79.374-130.293,72.894c-86.478-6.479-100.314-68.035-103.773-90.713
	c-3.459-22.678,0-48.2,0-48.2l-130.293,2.843v12.597l-102.62-6.118c0,0,2.306,42.117-39.203,80.994c0,0-8.071-32.397-2.306-82.614
	l-294.025-11.339c0,0-3.459,50.216-47.274,85.853c0,0-8.071-46.976,2.306-85.853l-138.365-4.86v-30.105l-38.05,0.948l18.449-51.836
	l-415.094,24.298l5.765-29.158c0,0-34.591-12.959-43.815,3.24c0,0-11.53,1.62-13.837-3.24c-2.306-4.86,11.53-32.397,65.723-27.538
	l350.523-24.298l456.603-37.257l626.099-90.713l-64.57-401.729l-69.182-419.547c0,0,32.285-51.836,40.356-38.877
	s87.631,306.156,87.631,306.156L1832.779,1975.122z"/>
</svg>
